<mxfile host="Electron" modified="2024-05-30T03:35:15.660Z" agent="Mozilla/5.0 (Windows NT 10.0; Win64; x64) AppleWebKit/537.36 (KHTML, like Gecko) draw.io/24.2.5 Chrome/120.0.6099.109 Electron/28.1.0 Safari/537.36" etag="5dK2sNgydKfCW-u12wXL" version="24.2.5" type="device">
  <diagram name="페이지-1" id="93DE7s4ki68VwjqAMXgv">
    <mxGraphModel dx="1194" dy="657" grid="1" gridSize="10" guides="1" tooltips="1" connect="1" arrows="1" fold="1" page="1" pageScale="1" pageWidth="827" pageHeight="1169" math="0" shadow="0">
      <root>
        <mxCell id="0" />
        <mxCell id="1" parent="0" />
        <mxCell id="M9bdW66WJYhsx1JfFgeZ-1" value="" style="edgeStyle=orthogonalEdgeStyle;rounded=0;orthogonalLoop=1;jettySize=auto;html=1;" edge="1" parent="1" source="vrBvipgxmOorZBdJkUtO-2" target="vrBvipgxmOorZBdJkUtO-7">
          <mxGeometry relative="1" as="geometry" />
        </mxCell>
        <mxCell id="vrBvipgxmOorZBdJkUtO-2" value="start" style="rounded=1;whiteSpace=wrap;html=1;" parent="1" vertex="1">
          <mxGeometry x="360" y="70" width="120" height="60" as="geometry" />
        </mxCell>
        <mxCell id="vrBvipgxmOorZBdJkUtO-10" value="" style="edgeStyle=orthogonalEdgeStyle;rounded=0;orthogonalLoop=1;jettySize=auto;html=1;" parent="1" source="vrBvipgxmOorZBdJkUtO-7" target="vrBvipgxmOorZBdJkUtO-8" edge="1">
          <mxGeometry relative="1" as="geometry" />
        </mxCell>
        <mxCell id="vrBvipgxmOorZBdJkUtO-7" value="oepn&lt;br&gt;control server socket" style="rounded=0;whiteSpace=wrap;html=1;" parent="1" vertex="1">
          <mxGeometry x="360" y="170" width="120" height="60" as="geometry" />
        </mxCell>
        <mxCell id="vrBvipgxmOorZBdJkUtO-14" value="" style="edgeStyle=orthogonalEdgeStyle;rounded=0;orthogonalLoop=1;jettySize=auto;html=1;" parent="1" source="vrBvipgxmOorZBdJkUtO-8" target="vrBvipgxmOorZBdJkUtO-12" edge="1">
          <mxGeometry relative="1" as="geometry" />
        </mxCell>
        <mxCell id="vrBvipgxmOorZBdJkUtO-8" value="bind socket with server_addr" style="whiteSpace=wrap;html=1;" parent="1" vertex="1">
          <mxGeometry x="360" y="250" width="120" height="60" as="geometry" />
        </mxCell>
        <mxCell id="HnC3ThLmGnI3ioGErX3l-3" value="" style="edgeStyle=orthogonalEdgeStyle;rounded=0;orthogonalLoop=1;jettySize=auto;html=1;" parent="1" source="vrBvipgxmOorZBdJkUtO-12" target="vrBvipgxmOorZBdJkUtO-37" edge="1">
          <mxGeometry relative="1" as="geometry" />
        </mxCell>
        <mxCell id="vrBvipgxmOorZBdJkUtO-12" value="listen size 5" style="whiteSpace=wrap;html=1;" parent="1" vertex="1">
          <mxGeometry x="360" y="330" width="120" height="60" as="geometry" />
        </mxCell>
        <mxCell id="HnC3ThLmGnI3ioGErX3l-35" value="" style="edgeStyle=orthogonalEdgeStyle;rounded=0;orthogonalLoop=1;jettySize=auto;html=1;" parent="1" source="vrBvipgxmOorZBdJkUtO-13" target="HnC3ThLmGnI3ioGErX3l-34" edge="1">
          <mxGeometry relative="1" as="geometry" />
        </mxCell>
        <mxCell id="vrBvipgxmOorZBdJkUtO-13" value="accept&lt;div&gt;control client&lt;/div&gt;" style="rounded=0;whiteSpace=wrap;html=1;" parent="1" vertex="1">
          <mxGeometry x="360" y="530" width="120" height="60" as="geometry" />
        </mxCell>
        <mxCell id="HnC3ThLmGnI3ioGErX3l-4" value="" style="edgeStyle=orthogonalEdgeStyle;rounded=0;orthogonalLoop=1;jettySize=auto;html=1;" parent="1" source="vrBvipgxmOorZBdJkUtO-37" target="vrBvipgxmOorZBdJkUtO-13" edge="1">
          <mxGeometry relative="1" as="geometry" />
        </mxCell>
        <mxCell id="vrBvipgxmOorZBdJkUtO-37" value="1" style="rhombus;whiteSpace=wrap;html=1;" parent="1" vertex="1">
          <mxGeometry x="360" y="420" width="120" height="80" as="geometry" />
        </mxCell>
        <mxCell id="vrBvipgxmOorZBdJkUtO-51" style="edgeStyle=orthogonalEdgeStyle;rounded=0;orthogonalLoop=1;jettySize=auto;html=1;entryX=0.5;entryY=0;entryDx=0;entryDy=0;" parent="1" source="vrBvipgxmOorZBdJkUtO-43" edge="1">
          <mxGeometry relative="1" as="geometry">
            <Array as="points">
              <mxPoint x="300" y="860" />
            </Array>
            <mxPoint x="300" y="910" as="targetPoint" />
          </mxGeometry>
        </mxCell>
        <mxCell id="vrBvipgxmOorZBdJkUtO-53" value="Yes" style="edgeLabel;html=1;align=center;verticalAlign=middle;resizable=0;points=[];" parent="vrBvipgxmOorZBdJkUtO-51" vertex="1" connectable="0">
          <mxGeometry x="-0.5091" relative="1" as="geometry">
            <mxPoint as="offset" />
          </mxGeometry>
        </mxCell>
        <mxCell id="HnC3ThLmGnI3ioGErX3l-19" style="edgeStyle=orthogonalEdgeStyle;rounded=0;orthogonalLoop=1;jettySize=auto;html=1;entryX=0.5;entryY=0;entryDx=0;entryDy=0;" parent="1" source="vrBvipgxmOorZBdJkUtO-43" target="HnC3ThLmGnI3ioGErX3l-17" edge="1">
          <mxGeometry relative="1" as="geometry">
            <Array as="points">
              <mxPoint x="540" y="860" />
            </Array>
          </mxGeometry>
        </mxCell>
        <mxCell id="vrBvipgxmOorZBdJkUtO-43" value="string == &quot;QUIT&quot;?" style="rhombus;whiteSpace=wrap;html=1;" parent="1" vertex="1">
          <mxGeometry x="360" y="820" width="120" height="80" as="geometry" />
        </mxCell>
        <mxCell id="HnC3ThLmGnI3ioGErX3l-63" value="" style="edgeStyle=orthogonalEdgeStyle;rounded=0;orthogonalLoop=1;jettySize=auto;html=1;exitX=0.5;exitY=1;exitDx=0;exitDy=0;" parent="1" source="HnC3ThLmGnI3ioGErX3l-64" target="HnC3ThLmGnI3ioGErX3l-62" edge="1">
          <mxGeometry relative="1" as="geometry">
            <mxPoint x="420" y="1730" as="sourcePoint" />
          </mxGeometry>
        </mxCell>
        <mxCell id="HnC3ThLmGnI3ioGErX3l-10" value="" style="edgeStyle=orthogonalEdgeStyle;rounded=0;orthogonalLoop=1;jettySize=auto;html=1;exitX=0.5;exitY=1;exitDx=0;exitDy=0;" parent="1" source="HnC3ThLmGnI3ioGErX3l-12" target="vrBvipgxmOorZBdJkUtO-43" edge="1">
          <mxGeometry relative="1" as="geometry">
            <mxPoint x="420" y="890" as="sourcePoint" />
          </mxGeometry>
        </mxCell>
        <mxCell id="HnC3ThLmGnI3ioGErX3l-12" value="read string&lt;div&gt;from Client&lt;/div&gt;" style="rounded=0;whiteSpace=wrap;html=1;" parent="1" vertex="1">
          <mxGeometry x="360" y="730" width="120" height="60" as="geometry" />
        </mxCell>
        <mxCell id="HnC3ThLmGnI3ioGErX3l-79" value="" style="edgeStyle=orthogonalEdgeStyle;rounded=0;orthogonalLoop=1;jettySize=auto;html=1;" parent="1" source="HnC3ThLmGnI3ioGErX3l-14" target="HnC3ThLmGnI3ioGErX3l-77" edge="1">
          <mxGeometry relative="1" as="geometry" />
        </mxCell>
        <mxCell id="HnC3ThLmGnI3ioGErX3l-14" value="send 221 code&lt;div&gt;to control client&lt;/div&gt;" style="rounded=0;whiteSpace=wrap;html=1;" parent="1" vertex="1">
          <mxGeometry x="240" y="910" width="120" height="60" as="geometry" />
        </mxCell>
        <mxCell id="HnC3ThLmGnI3ioGErX3l-38" style="edgeStyle=orthogonalEdgeStyle;rounded=0;orthogonalLoop=1;jettySize=auto;html=1;entryX=0;entryY=0.5;entryDx=0;entryDy=0;exitX=0.5;exitY=1;exitDx=0;exitDy=0;" parent="1" source="HnC3ThLmGnI3ioGErX3l-77" target="vrBvipgxmOorZBdJkUtO-37" edge="1">
          <mxGeometry relative="1" as="geometry">
            <mxPoint x="290" y="1061" as="sourcePoint" />
            <Array as="points">
              <mxPoint x="300" y="1090" />
              <mxPoint x="220" y="1090" />
              <mxPoint x="220" y="460" />
            </Array>
          </mxGeometry>
        </mxCell>
        <mxCell id="HnC3ThLmGnI3ioGErX3l-25" value="" style="edgeStyle=orthogonalEdgeStyle;rounded=0;orthogonalLoop=1;jettySize=auto;html=1;" parent="1" source="HnC3ThLmGnI3ioGErX3l-17" target="HnC3ThLmGnI3ioGErX3l-21" edge="1">
          <mxGeometry relative="1" as="geometry" />
        </mxCell>
        <mxCell id="HnC3ThLmGnI3ioGErX3l-17" value="seperate ip and port&lt;div&gt;from PORT command&lt;/div&gt;" style="rounded=0;whiteSpace=wrap;html=1;" parent="1" vertex="1">
          <mxGeometry x="480" y="910" width="120" height="60" as="geometry" />
        </mxCell>
        <mxCell id="HnC3ThLmGnI3ioGErX3l-21" value="oepn&lt;br&gt;data server socket" style="rounded=0;whiteSpace=wrap;html=1;" parent="1" vertex="1">
          <mxGeometry x="480" y="1010" width="120" height="60" as="geometry" />
        </mxCell>
        <mxCell id="HnC3ThLmGnI3ioGErX3l-22" style="edgeStyle=orthogonalEdgeStyle;rounded=0;orthogonalLoop=1;jettySize=auto;html=1;entryX=0.5;entryY=0;entryDx=0;entryDy=0;exitX=0.5;exitY=1;exitDx=0;exitDy=0;" parent="1" source="HnC3ThLmGnI3ioGErX3l-21" target="HnC3ThLmGnI3ioGErX3l-24" edge="1">
          <mxGeometry relative="1" as="geometry">
            <mxPoint x="540" y="1070" as="sourcePoint" />
          </mxGeometry>
        </mxCell>
        <mxCell id="HnC3ThLmGnI3ioGErX3l-27" value="" style="edgeStyle=orthogonalEdgeStyle;rounded=0;orthogonalLoop=1;jettySize=auto;html=1;" parent="1" source="HnC3ThLmGnI3ioGErX3l-24" target="HnC3ThLmGnI3ioGErX3l-26" edge="1">
          <mxGeometry relative="1" as="geometry" />
        </mxCell>
        <mxCell id="HnC3ThLmGnI3ioGErX3l-24" value="connect to&lt;div&gt;data server&lt;/div&gt;" style="rounded=0;whiteSpace=wrap;html=1;" parent="1" vertex="1">
          <mxGeometry x="480" y="1090" width="120" height="60" as="geometry" />
        </mxCell>
        <mxCell id="HnC3ThLmGnI3ioGErX3l-29" style="edgeStyle=orthogonalEdgeStyle;rounded=0;orthogonalLoop=1;jettySize=auto;html=1;entryX=0.5;entryY=0;entryDx=0;entryDy=0;" parent="1" source="HnC3ThLmGnI3ioGErX3l-26" target="HnC3ThLmGnI3ioGErX3l-28" edge="1">
          <mxGeometry relative="1" as="geometry">
            <Array as="points">
              <mxPoint x="660" y="1220" />
            </Array>
          </mxGeometry>
        </mxCell>
        <mxCell id="HnC3ThLmGnI3ioGErX3l-30" value="no" style="edgeLabel;html=1;align=center;verticalAlign=middle;resizable=0;points=[];" parent="HnC3ThLmGnI3ioGErX3l-29" vertex="1" connectable="0">
          <mxGeometry x="-0.5091" y="1" relative="1" as="geometry">
            <mxPoint as="offset" />
          </mxGeometry>
        </mxCell>
        <mxCell id="HnC3ThLmGnI3ioGErX3l-32" style="edgeStyle=orthogonalEdgeStyle;rounded=0;orthogonalLoop=1;jettySize=auto;html=1;entryX=0.5;entryY=0;entryDx=0;entryDy=0;" parent="1" source="HnC3ThLmGnI3ioGErX3l-26" target="HnC3ThLmGnI3ioGErX3l-31" edge="1">
          <mxGeometry relative="1" as="geometry">
            <Array as="points">
              <mxPoint x="420" y="1220" />
            </Array>
          </mxGeometry>
        </mxCell>
        <mxCell id="HnC3ThLmGnI3ioGErX3l-33" value="yes" style="edgeLabel;html=1;align=center;verticalAlign=middle;resizable=0;points=[];" parent="HnC3ThLmGnI3ioGErX3l-32" vertex="1" connectable="0">
          <mxGeometry x="-0.5273" relative="1" as="geometry">
            <mxPoint as="offset" />
          </mxGeometry>
        </mxCell>
        <mxCell id="HnC3ThLmGnI3ioGErX3l-26" value="success?" style="rhombus;whiteSpace=wrap;html=1;" parent="1" vertex="1">
          <mxGeometry x="480" y="1180" width="120" height="80" as="geometry" />
        </mxCell>
        <mxCell id="HnC3ThLmGnI3ioGErX3l-39" style="edgeStyle=orthogonalEdgeStyle;rounded=0;orthogonalLoop=1;jettySize=auto;html=1;entryX=1;entryY=0.5;entryDx=0;entryDy=0;exitX=1;exitY=0.5;exitDx=0;exitDy=0;" parent="1" source="HnC3ThLmGnI3ioGErX3l-28" target="HnC3ThLmGnI3ioGErX3l-34" edge="1">
          <mxGeometry relative="1" as="geometry">
            <mxPoint x="710" y="1400" as="sourcePoint" />
            <Array as="points">
              <mxPoint x="740" y="1300" />
              <mxPoint x="740" y="660" />
            </Array>
          </mxGeometry>
        </mxCell>
        <mxCell id="HnC3ThLmGnI3ioGErX3l-28" value="send 550 code&lt;div&gt;to control client&lt;/div&gt;" style="rounded=0;whiteSpace=wrap;html=1;" parent="1" vertex="1">
          <mxGeometry x="600" y="1270" width="120" height="60" as="geometry" />
        </mxCell>
        <mxCell id="HnC3ThLmGnI3ioGErX3l-42" value="" style="edgeStyle=orthogonalEdgeStyle;rounded=0;orthogonalLoop=1;jettySize=auto;html=1;entryX=0.5;entryY=0;entryDx=0;entryDy=0;" parent="1" source="HnC3ThLmGnI3ioGErX3l-31" target="HnC3ThLmGnI3ioGErX3l-46" edge="1">
          <mxGeometry relative="1" as="geometry">
            <mxPoint x="420" y="1370" as="targetPoint" />
          </mxGeometry>
        </mxCell>
        <mxCell id="HnC3ThLmGnI3ioGErX3l-31" value="send 200code&lt;div&gt;to control client&lt;/div&gt;" style="rounded=0;whiteSpace=wrap;html=1;" parent="1" vertex="1">
          <mxGeometry x="360" y="1270" width="120" height="60" as="geometry" />
        </mxCell>
        <mxCell id="HnC3ThLmGnI3ioGErX3l-37" style="edgeStyle=orthogonalEdgeStyle;rounded=0;orthogonalLoop=1;jettySize=auto;html=1;entryX=0.5;entryY=0;entryDx=0;entryDy=0;" parent="1" source="HnC3ThLmGnI3ioGErX3l-34" target="HnC3ThLmGnI3ioGErX3l-12" edge="1">
          <mxGeometry relative="1" as="geometry" />
        </mxCell>
        <mxCell id="HnC3ThLmGnI3ioGErX3l-34" value="1" style="rhombus;whiteSpace=wrap;html=1;" parent="1" vertex="1">
          <mxGeometry x="360" y="620" width="120" height="80" as="geometry" />
        </mxCell>
        <mxCell id="HnC3ThLmGnI3ioGErX3l-50" value="" style="edgeStyle=orthogonalEdgeStyle;rounded=0;orthogonalLoop=1;jettySize=auto;html=1;entryX=0.5;entryY=0;entryDx=0;entryDy=0;" parent="1" source="HnC3ThLmGnI3ioGErX3l-46" target="HnC3ThLmGnI3ioGErX3l-52" edge="1">
          <mxGeometry relative="1" as="geometry">
            <mxPoint x="420" y="1570" as="targetPoint" />
          </mxGeometry>
        </mxCell>
        <mxCell id="HnC3ThLmGnI3ioGErX3l-46" value="read ftp command&lt;div&gt;from Client&lt;/div&gt;" style="rounded=0;whiteSpace=wrap;html=1;" parent="1" vertex="1">
          <mxGeometry x="360" y="1370" width="120" height="60" as="geometry" />
        </mxCell>
        <mxCell id="HnC3ThLmGnI3ioGErX3l-51" value="" style="edgeStyle=orthogonalEdgeStyle;rounded=0;orthogonalLoop=1;jettySize=auto;html=1;entryX=0.5;entryY=0;entryDx=0;entryDy=0;" parent="1" source="HnC3ThLmGnI3ioGErX3l-52" target="HnC3ThLmGnI3ioGErX3l-57" edge="1">
          <mxGeometry relative="1" as="geometry">
            <mxPoint x="420" y="1570" as="targetPoint" />
          </mxGeometry>
        </mxCell>
        <mxCell id="HnC3ThLmGnI3ioGErX3l-52" value="send 150 code&lt;div&gt;to control client&lt;/div&gt;" style="rounded=0;whiteSpace=wrap;html=1;" parent="1" vertex="1">
          <mxGeometry x="360" y="1470" width="120" height="60" as="geometry" />
        </mxCell>
        <mxCell id="HnC3ThLmGnI3ioGErX3l-60" value="" style="edgeStyle=orthogonalEdgeStyle;rounded=0;orthogonalLoop=1;jettySize=auto;html=1;entryX=0.5;entryY=0;entryDx=0;entryDy=0;" parent="1" source="HnC3ThLmGnI3ioGErX3l-57" target="HnC3ThLmGnI3ioGErX3l-64" edge="1">
          <mxGeometry relative="1" as="geometry">
            <mxPoint x="420" y="1670" as="targetPoint" />
          </mxGeometry>
        </mxCell>
        <mxCell id="HnC3ThLmGnI3ioGErX3l-57" value="cmd_process&lt;div&gt;(write result of cmd&lt;/div&gt;&lt;div&gt;to result_buff)&lt;/div&gt;" style="rounded=0;whiteSpace=wrap;html=1;" parent="1" vertex="1">
          <mxGeometry x="360" y="1570" width="120" height="60" as="geometry" />
        </mxCell>
        <mxCell id="HnC3ThLmGnI3ioGErX3l-68" style="edgeStyle=orthogonalEdgeStyle;rounded=0;orthogonalLoop=1;jettySize=auto;html=1;entryX=0.5;entryY=0;entryDx=0;entryDy=0;" parent="1" source="HnC3ThLmGnI3ioGErX3l-62" target="HnC3ThLmGnI3ioGErX3l-67" edge="1">
          <mxGeometry relative="1" as="geometry">
            <Array as="points">
              <mxPoint x="300" y="1800" />
            </Array>
          </mxGeometry>
        </mxCell>
        <mxCell id="HnC3ThLmGnI3ioGErX3l-72" value="no" style="edgeLabel;html=1;align=center;verticalAlign=middle;resizable=0;points=[];" parent="HnC3ThLmGnI3ioGErX3l-68" vertex="1" connectable="0">
          <mxGeometry x="-0.36" y="-1" relative="1" as="geometry">
            <mxPoint as="offset" />
          </mxGeometry>
        </mxCell>
        <mxCell id="HnC3ThLmGnI3ioGErX3l-69" style="edgeStyle=orthogonalEdgeStyle;rounded=0;orthogonalLoop=1;jettySize=auto;html=1;entryX=0.5;entryY=0;entryDx=0;entryDy=0;" parent="1" source="HnC3ThLmGnI3ioGErX3l-62" target="HnC3ThLmGnI3ioGErX3l-66" edge="1">
          <mxGeometry relative="1" as="geometry">
            <Array as="points">
              <mxPoint x="540" y="1800" />
            </Array>
          </mxGeometry>
        </mxCell>
        <mxCell id="HnC3ThLmGnI3ioGErX3l-71" value="yes" style="edgeLabel;html=1;align=center;verticalAlign=middle;resizable=0;points=[];" parent="HnC3ThLmGnI3ioGErX3l-69" vertex="1" connectable="0">
          <mxGeometry x="-0.4" y="4" relative="1" as="geometry">
            <mxPoint as="offset" />
          </mxGeometry>
        </mxCell>
        <mxCell id="HnC3ThLmGnI3ioGErX3l-62" value="success?" style="rhombus;whiteSpace=wrap;html=1;" parent="1" vertex="1">
          <mxGeometry x="360" y="1760" width="120" height="80" as="geometry" />
        </mxCell>
        <mxCell id="HnC3ThLmGnI3ioGErX3l-64" value="send result_buff&lt;div&gt;to data server&lt;/div&gt;" style="rounded=0;whiteSpace=wrap;html=1;" parent="1" vertex="1">
          <mxGeometry x="360" y="1670" width="120" height="60" as="geometry" />
        </mxCell>
        <mxCell id="HnC3ThLmGnI3ioGErX3l-74" style="edgeStyle=orthogonalEdgeStyle;rounded=0;orthogonalLoop=1;jettySize=auto;html=1;entryX=0.5;entryY=0;entryDx=0;entryDy=0;" parent="1" source="HnC3ThLmGnI3ioGErX3l-66" target="HnC3ThLmGnI3ioGErX3l-73" edge="1">
          <mxGeometry relative="1" as="geometry" />
        </mxCell>
        <mxCell id="HnC3ThLmGnI3ioGErX3l-66" value="send 226 code&lt;div&gt;to control client&lt;/div&gt;" style="rounded=0;whiteSpace=wrap;html=1;" parent="1" vertex="1">
          <mxGeometry x="480" y="1840" width="120" height="60" as="geometry" />
        </mxCell>
        <mxCell id="HnC3ThLmGnI3ioGErX3l-75" style="edgeStyle=orthogonalEdgeStyle;rounded=0;orthogonalLoop=1;jettySize=auto;html=1;entryX=0.5;entryY=0;entryDx=0;entryDy=0;" parent="1" source="HnC3ThLmGnI3ioGErX3l-67" target="HnC3ThLmGnI3ioGErX3l-73" edge="1">
          <mxGeometry relative="1" as="geometry" />
        </mxCell>
        <mxCell id="HnC3ThLmGnI3ioGErX3l-67" value="send 550code&lt;div&gt;to control client&lt;/div&gt;" style="rounded=0;whiteSpace=wrap;html=1;" parent="1" vertex="1">
          <mxGeometry x="240" y="1840" width="120" height="60" as="geometry" />
        </mxCell>
        <mxCell id="HnC3ThLmGnI3ioGErX3l-76" style="edgeStyle=orthogonalEdgeStyle;rounded=0;orthogonalLoop=1;jettySize=auto;html=1;entryX=1;entryY=0.5;entryDx=0;entryDy=0;" parent="1" source="HnC3ThLmGnI3ioGErX3l-73" target="HnC3ThLmGnI3ioGErX3l-34" edge="1">
          <mxGeometry relative="1" as="geometry">
            <Array as="points">
              <mxPoint x="760" y="1980" />
              <mxPoint x="760" y="660" />
            </Array>
          </mxGeometry>
        </mxCell>
        <mxCell id="HnC3ThLmGnI3ioGErX3l-73" value="close data connection" style="rounded=0;whiteSpace=wrap;html=1;" parent="1" vertex="1">
          <mxGeometry x="360" y="1950" width="120" height="60" as="geometry" />
        </mxCell>
        <mxCell id="HnC3ThLmGnI3ioGErX3l-77" value="close&lt;div&gt;control connection&lt;/div&gt;" style="rounded=0;whiteSpace=wrap;html=1;" parent="1" vertex="1">
          <mxGeometry x="240" y="1010" width="120" height="60" as="geometry" />
        </mxCell>
      </root>
    </mxGraphModel>
  </diagram>
</mxfile>
